<svg xmlns="http://www.w3.org/2000/svg" width="32" height="32" fill="none" viewBox="0 0 32 32"><g clip-path="url(#clip0_2024_652)"><path fill="#ff5c8d" d="M24 0H8C3.58172 0 0 3.58172 0 8V24C0 28.4183 3.58172 32 8 32H24C28.4183 32 32 28.4183 32 24V8C32 3.58172 28.4183 0 24 0Z"/><path fill="#fff" d="M10.3059 23.342C9.80188 23.342 9.34588 23.27 8.93788 23.126C8.52988 22.982 8.18188 22.814 7.89388 22.622C7.61788 22.43 7.40188 22.262 7.24588 22.118C7.10188 21.974 7.02988 21.902 7.02988 21.902C6.87388 21.734 6.72988 21.566 6.59788 21.398C6.46588 21.218 6.39988 21.014 6.39988 20.786C6.39988 20.594 6.44788 20.402 6.54388 20.21C6.65188 20.006 6.81388 19.79 7.02988 19.562C7.23388 19.346 7.43188 19.184 7.62388 19.076C7.81588 18.968 8.00788 18.914 8.19988 18.914C8.43988 18.914 8.65588 18.986 8.84788 19.13C9.05188 19.274 9.23188 19.43 9.38788 19.598C9.43588 19.634 9.50188 19.688 9.58588 19.76C9.66988 19.82 9.77788 19.88 9.90988 19.94C10.0419 19.988 10.2039 20.012 10.3959 20.012C10.5879 20.012 10.7619 19.982 10.9179 19.922C11.0859 19.85 11.2239 19.754 11.3319 19.634C11.4519 19.502 11.5419 19.352 11.6019 19.184C11.6619 19.004 11.6919 18.806 11.6919 18.59V12.344C11.6919 12.068 11.7159 11.792 11.7639 11.516C11.8239 11.24 11.9679 11.012 12.1959 10.832C12.4359 10.652 12.8319 10.562 13.3839 10.562C13.9119 10.562 14.2839 10.646 14.4999 10.814C14.7279 10.982 14.8659 11.198 14.9139 11.462C14.9739 11.714 15.0039 11.972 15.0039 12.236V18.716C15.0039 19.352 14.8839 19.952 14.6439 20.516C14.4039 21.068 14.0679 21.56 13.6359 21.992C13.2039 22.412 12.6999 22.742 12.1239 22.982C11.5599 23.222 10.9539 23.342 10.3059 23.342ZM20.7504 23.378C20.1024 23.378 19.4904 23.27 18.9144 23.054C18.3384 22.838 17.8224 22.544 17.3664 22.172C16.9224 21.788 16.5744 21.356 16.3224 20.876C16.0704 20.384 15.9444 19.874 15.9444 19.346C15.9444 18.59 16.5444 18.212 17.7444 18.212C18.0804 18.212 18.3324 18.242 18.5004 18.302C18.6804 18.362 18.8244 18.47 18.9324 18.626C19.0404 18.77 19.1484 18.98 19.2564 19.256C19.2564 19.256 19.2924 19.334 19.3644 19.49C19.4484 19.634 19.5984 19.784 19.8144 19.94C20.0304 20.084 20.3484 20.156 20.7684 20.156C21.0924 20.156 21.3684 20.114 21.5964 20.03C21.8244 19.946 21.9984 19.826 22.1184 19.67C22.2504 19.514 22.3164 19.334 22.3164 19.13C22.3164 18.89 22.2564 18.692 22.1364 18.536C22.0164 18.38 21.8544 18.266 21.6504 18.194C21.4464 18.122 21.2064 18.086 20.9304 18.086C20.6664 18.086 20.4084 18.068 20.1564 18.032C19.9044 17.996 19.6944 17.87 19.5264 17.654C19.3704 17.438 19.2924 17.06 19.2924 16.52C19.2924 15.968 19.3704 15.59 19.5264 15.386C19.6944 15.17 19.9044 15.05 20.1564 15.026C20.4204 14.99 20.6844 14.972 20.9484 14.972C21.1884 14.972 21.3864 14.96 21.5424 14.936C21.7104 14.9 21.8364 14.84 21.9204 14.756C22.0044 14.672 22.0464 14.552 22.0464 14.396C22.0464 14.216 21.9984 14.066 21.9024 13.946C21.8184 13.814 21.6924 13.718 21.5244 13.658C21.3564 13.586 21.1584 13.55 20.9304 13.55C20.6424 13.55 20.4144 13.586 20.2464 13.658C20.0784 13.73 19.9464 13.826 19.8504 13.946C19.7664 14.054 19.6944 14.162 19.6344 14.27C19.4064 14.774 19.1004 15.08 18.7164 15.188C18.3444 15.284 17.8944 15.188 17.3664 14.9C16.8504 14.588 16.5564 14.258 16.4844 13.91C16.4124 13.562 16.4964 13.148 16.7364 12.668C16.7364 12.68 16.7664 12.614 16.8264 12.47C16.8984 12.314 17.0244 12.122 17.2044 11.894C17.3844 11.666 17.6244 11.438 17.9244 11.21C18.2244 10.97 18.6084 10.772 19.0764 10.616C19.5444 10.46 20.1024 10.382 20.7504 10.382C21.5064 10.382 22.1664 10.502 22.7304 10.742C23.3064 10.982 23.7864 11.294 24.1704 11.678C24.5664 12.062 24.8604 12.488 25.0524 12.956C25.2564 13.412 25.3584 13.868 25.3584 14.324C25.3584 14.768 25.2804 15.146 25.1244 15.458C24.9804 15.758 24.8064 15.998 24.6024 16.178C24.4104 16.346 24.2484 16.466 24.1164 16.538C24.2244 16.61 24.3624 16.718 24.5304 16.862C24.6984 16.994 24.8604 17.168 25.0164 17.384C25.1844 17.6 25.3224 17.852 25.4304 18.14C25.5504 18.416 25.6104 18.734 25.6104 19.094C25.6104 19.922 25.4004 20.66 24.9804 21.308C24.5604 21.944 23.9844 22.448 23.2524 22.82C22.5204 23.192 21.6864 23.378 20.7504 23.378Z"/></g><defs><clipPath id="clip0_2024_652"><path fill="#fff" d="M0 0H32V32H0z"/></clipPath></defs></svg>